<svg xmlns="http://www.w3.org/2000/svg"
	width="78" 
	height="78" 
	viewBox="0 0 78 78">
	
	<!--Left box-->
	<rect x="0" y="2" width="29" height="74" fill="#4ea13f" stroke="#4ea13f" stroke-width="1"/>
	
	<!--Top leaf-->
	<path d="M 28 39 C 27 0, 52 1, 74 0 C 72 47, 36 38, 28 39" stroke="#4ea13f" fill="#4ea13f"/>
	<!--Bottom leaf-->
	<path d="M 28 39 C 27 78, 52 77, 74 78 C 72 31, 36 40, 28 39" stroke="#4ea13f" fill="#4ea13f"/>
	
	
	<!--Reference points-->
	<!--
	<circle cx="29" cy="19" r="1" fill="black"/>
	<circle cx="29" cy="55" r="1" fill="black"/>
	<circle cx="46" cy="37" r="1" fill="black"/>
	<circle cx="74" cy="0" r="1" fill="black"/>
	<circle cx="74" cy="74" r="1" fill="black"/>
	<circle cx="70" cy="19" r="1" fill="black"/>
	<circle cx="70" cy="55" r="1" fill="black"/>
	<circle cx="46" cy="3" r="1" fill="black"/>
	<circle cx="46" cy="71" r="1" fill="black"/>
	-->
</svg>