<svg xmlns="http://www.w3.org/2000/svg"
	width="1500" 
	height="1000" 
	viewBox="0 0 1500 1000">
	
	<style>
		.blockWalls {
			stroke:#7F7F7F; 
			stroke-width:3;
		}
		.plateWalls {
			stroke:#0F0F0F; 
			stroke-width:3;
		}
		.entrance {
			stroke:#FFEE00; 
			stroke-width:4;
		}
	</style>
	
	

	<!--Plate Walls-->
	<line x1="25" y1="325" x2="300" y2="325" class="plateWalls"/>
	<line x1="475" y1="525" x2="900" y2="525" class="plateWalls"/>
	<!--Block Walls-->
	<line x1="450" y1="200" x2="450" y2="276" class="blockWalls"/>
	<line x1="505" y1="200" x2="505" y2="275" class="blockWalls"/>
	<line x1="675" y1="200" x2="675" y2="375" class="blockWalls"/>
	<line x1="750" y1="200" x2="750" y2="375" class="blockWalls"/>
	<line x1="900" y1="250" x2="900" y2="300" class="blockWalls"/>
	<line x1="450" y1="275" x2="900" y2="275" class="blockWalls"/>
	<line x1="575" y1="275" x2="575" y2="350" class="blockWalls"/>
	<line x1="825" y1="275" x2="825" y2="375" class="blockWalls"/>
	
	<line x1="525" y1="600" x2="625" y2="600" class="blockWalls"/>
	<line x1="500" y1="675" x2="600" y2="675" class="blockWalls"/>
	<line x1="475" y1="750" x2="600" y2="750" class="blockWalls"/>
	<line x1="600" y1="600" x2="600" y2="825" class="blockWalls"/>
	
	<line x1="25" y1="825" x2="25" y2="875" class="blockWalls"/>
	<line x1="200" y1="825" x2="200" y2="875" class="blockWalls"/>
	<line x1="250" y1="825" x2="250" y2="875" class="blockWalls"/>
	<line x1="300" y1="825" x2="300" y2="875" class="blockWalls"/>
	<line x1="350" y1="825" x2="350" y2="875" class="blockWalls"/>
	<line x1="475" y1="825" x2="475" y2="875" class="blockWalls"/>
	
	<!--Outer Walls-->
	<polygon points="25,25 1325,25 1325,525 1275,525 1275,825 25,825" fill="none" stroke="#000000" stroke-width="5"/>
	<polygon points="25,25 1325,25 1325,525 1275,525 1275,825 25,825" fill="none" stroke="#FFFFFF" stroke-width="1"/>
	
	<!--Entrance-->
	<line x1="375" y1="825" x2="425" y2="825" class="entrance"/>
</svg>